<?xml version="1.0" encoding="UTF-8"?>
<svg width="160px" height="44px" viewBox="0 0 160 44" version="1.1" xmlns="http://www.w3.org/2000/svg" xmlns:xlink="http://www.w3.org/1999/xlink">
    <!-- Generator: Sketch 54.1 (76490) - https://sketchapp.com -->
    <title>Group 29</title>
    <desc>Created with Sketch.</desc>
    <g id="Foundation" stroke="none" stroke-width="1" fill="none" fill-rule="evenodd">
        <g id="Home" transform="translate(-349.000000, -4862.000000)" fill="#7289DA" fill-rule="nonzero">
            <g id="Group-10" transform="translate(0.000000, 4638.000000)">
                <g id="Group-32" transform="translate(333.000000, 208.000000)">
                    <g id="Group-31">
                        <g id="Group-29" transform="translate(15.999999, 16.141999)">
                            <path d="M34.2008233,0.197999988 L4.70976588,0.197999988 C2.22283343,0.197999988 0.198074266,2.22199987 0.198074266,4.70799972 L0.198074266,34.187998 C0.198074266,36.6739978 2.22283343,38.6979977 4.70976588,38.6979977 L29.6671234,38.6979977 L28.5006861,34.6719979 L31.3177423,37.2679978 L33.9807408,39.7099976 L38.7345231,43.8239974 L38.7345231,4.70799972 C38.7125149,2.22199987 36.6877557,0.197999988 34.2008233,0.197999988 Z M25.7056381,28.6879983 C25.7056381,28.6879983 24.913341,27.7419983 24.2530935,26.9279984 C27.1361744,26.1139984 28.236587,24.3319985 28.236587,24.3319985 C27.3342487,24.9259985 26.4759269,25.3439985 25.7056381,25.6299985 C24.6052255,26.0919984 23.5488294,26.3779984 22.5144416,26.5759984 C20.4016494,26.9719984 18.4649232,26.8619984 16.8143044,26.5539984 C15.559834,26.3119984 14.4814297,25.9819985 13.5790914,25.6079985 C13.0729016,25.4099985 12.5226953,25.1679985 11.972489,24.8599985 C11.9064642,24.8159985 11.8404395,24.7939985 11.7744147,24.7499985 C11.7303982,24.7279985 11.7083899,24.7059985 11.6863817,24.7059985 C11.2902332,24.4859985 11.0701506,24.3319985 11.0701506,24.3319985 C11.0701506,24.3319985 12.1265467,26.0699984 14.9215947,26.9059984 C14.2613472,27.7419983 13.4470418,28.7099983 13.4470418,28.7099983 C8.5832182,28.5559983 6.73452505,25.3879985 6.73452505,25.3879985 C6.73452505,18.3699989 9.9037133,12.6719992 9.9037133,12.6719992 C13.0729016,10.3179994 16.0660238,10.3839994 16.0660238,10.3839994 L16.2861063,10.6479994 C12.324621,11.7699993 10.5199444,13.5079992 10.5199444,13.5079992 C10.5199444,13.5079992 11.0041259,13.2439992 11.8184312,12.8919992 C14.1733141,11.8579993 16.0440155,11.5939993 16.8143044,11.5059993 C16.9463539,11.4839993 17.0563951,11.4619993 17.1884446,11.4619993 C18.530948,11.2859993 20.0495174,11.2419993 21.6341115,11.4179993 C23.7248954,11.6599993 25.9697371,12.2759993 28.2585953,13.5079992 C28.2585953,13.5079992 26.5199434,11.8579993 22.7785406,10.7359994 L23.0866561,10.3839994 C23.0866561,10.3839994 26.1017866,10.3179994 29.2489666,12.6719992 C29.2489666,12.6719992 32.4181549,18.3699989 32.4181549,25.3879985 C32.4181549,25.3659985 30.5694617,28.5339983 25.7056381,28.6879983 L25.7056381,28.6879983 Z M58.9380983,9.61399943 L51.6313587,9.61399943 L51.6313587,17.8199989 L56.4951823,22.1979987 L56.4951823,14.2339992 L59.092156,14.2339992 C60.7427749,14.2339992 61.5570802,15.0259991 61.5570802,16.301999 L61.5570802,22.3959987 C61.5570802,23.6719986 60.7867914,24.5299985 59.092156,24.5299985 L51.6093504,24.5299985 L51.6093504,29.1721815 L58.91609,29.1719983 C62.8335588,29.1939983 66.5089369,27.2359984 66.5089369,22.7479986 L66.5089369,16.191999 C66.5309451,11.6159993 62.8555671,9.61399943 58.9380983,9.61399943 L58.9380983,9.61399943 Z M97.2324564,22.7479986 L97.2324564,16.015999 C97.2324564,13.5959992 101.59009,13.0459992 102.910585,15.4659991 L106.938095,13.8379992 C105.353501,10.3619994 102.47042,9.34999944 100.071521,9.34999944 C96.154052,9.34999944 92.2805997,11.6159993 92.2805997,16.015999 L92.2805997,22.7479986 C92.2805997,27.1919984 96.154052,29.4139982 99.9834879,29.4139982 C102.448412,29.4139982 105.397518,28.2039983 107.026128,25.0359985 L102.712511,23.0559986 C101.656115,25.7619985 97.2324564,25.1019985 97.2324564,22.7479986 Z M83.917464,16.939999 C82.3988947,16.609999 81.3865151,16.059999 81.3204903,15.1139991 C81.4085233,12.8479992 84.9078354,12.7599992 86.9546028,14.9379991 L90.1898158,12.4519993 C88.1650566,9.9879994 85.8761985,9.32799944 83.5213155,9.32799944 C79.9339705,9.32799944 76.4566667,11.3519993 76.4566667,15.1799991 C76.4566667,18.8979989 79.3177394,20.8999988 82.4649194,21.3839987 C84.0715218,21.6039987 85.8541902,22.2419987 85.8101737,23.3419986 C85.6781242,25.4319985 81.3645068,25.3219985 79.4057724,22.9459986 L76.2806007,25.8719985 C78.1072856,28.2259983 80.594218,29.4139982 82.9270927,29.4139982 C86.5144378,29.4139982 90.4979313,27.3459984 90.6519891,23.5619986 C90.8720716,18.7879989 87.3947678,17.577999 83.917464,16.939999 Z M69.1719354,29.1499983 L74.1017838,29.1499983 L74.1017838,9.61399943 L69.1719354,9.61399943 L69.1719354,29.1499983 Z M152.297102,9.61399943 L144.990363,9.61399943 L144.990363,17.8199989 L149.854186,22.1979987 L149.854186,14.2339992 L152.45116,14.2339992 C154.101779,14.2339992 154.916084,15.0259991 154.916084,16.301999 L154.916084,22.3959987 C154.916084,23.6719986 154.145795,24.5299985 152.45116,24.5299985 L144.968354,24.5299985 L144.968354,29.1721815 L152.297102,29.1719983 C156.214571,29.1939983 159.889949,27.2359984 159.889949,22.7479986 L159.889949,16.191999 C159.889949,11.6159993 156.214571,9.61399943 152.297102,9.61399943 Z M116.44566,9.34999944 C112.396142,9.34999944 108.368632,11.5499993 108.368632,16.059999 L108.368632,22.7259986 C108.368632,27.1919984 112.41815,29.4359982 116.489677,29.4359982 C120.539195,29.4359982 124.566705,27.1919984 124.566705,22.7259986 L124.566705,16.059999 C124.566705,11.5719993 120.495179,9.34999944 116.44566,9.34999944 Z M119.614848,22.7259986 C119.614848,24.1339986 118.030254,24.8599985 116.467668,24.8599985 C114.883074,24.8599985 113.29848,24.1779986 113.29848,22.7259986 L113.29848,16.059999 C113.29848,14.6299991 114.839058,13.8599992 116.379635,13.8599992 C117.986238,13.8599992 119.614848,14.5419991 119.614848,16.059999 L119.614848,22.7259986 L119.614848,22.7259986 Z M142.26134,16.059999 C142.151298,11.4839993 139.026127,9.63599943 134.998616,9.63599943 L127.185687,9.63599943 L127.185687,29.1719983 L132.18156,29.1719983 L132.18156,22.9679986 L133.06189,22.9679986 L137.59559,29.1719983 L143.757901,29.1719983 L138.431904,22.4619987 C140.786787,21.7139987 142.26134,19.6679988 142.26134,16.059999 Z M135.086649,18.6999989 L132.18156,18.6999989 L132.18156,14.2339992 L135.086649,14.2339992 C138.189813,14.2339992 138.189813,18.6999989 135.086649,18.6999989 Z" id="Shape"></path>
                        </g>
                    </g>
                </g>
            </g>
        </g>
    </g>
</svg>