<?xml version="1.0" encoding="UTF-8"?>
<svg width="152px" height="35px" viewBox="0 0 152 35" version="1.1" xmlns="http://www.w3.org/2000/svg" xmlns:xlink="http://www.w3.org/1999/xlink">
    <!-- Generator: Sketch 54.1 (76490) - https://sketchapp.com -->
    <title>Group 27</title>
    <desc>Created with Sketch.</desc>
    <g id="Foundation" stroke="none" stroke-width="1" fill="none" fill-rule="evenodd">
        <g id="Home" transform="translate(-609.000000, -4866.000000)" fill-rule="nonzero">
            <g id="Group-10" transform="translate(0.000000, 4638.000000)">
                <g id="Group-32" transform="translate(333.000000, 208.000000)">
                    <g id="Group-30" transform="translate(259.999985, 0.000000)">
                        <g id="Group-27" transform="translate(15.999999, 20.799999)">
                            <g id="github" fill="#000000">
                                <path d="M17.2413783,0.0814285666 C7.71551678,0.0814285666 0,7.75714239 0,17.2242847 C0,24.7999985 4.93965488,31.2242839 11.7887924,33.4885694 C12.6508613,33.649998 12.9669533,33.119998 12.9669533,32.6642838 C12.9669533,32.2571409 12.9525854,31.1785696 12.9454015,29.7499982 C8.1494248,30.7842839 7.13793061,27.4499984 7.13793061,27.4499984 C6.3534479,25.4714271 5.21982728,24.9428557 5.21982728,24.9428557 C3.65804576,23.8799986 5.34051692,23.9014271 5.34051692,23.9014271 C7.07183866,24.0214271 7.98132136,25.6671413 7.98132136,25.6671413 C9.51867759,28.2885697 12.0172407,27.5314269 13.0028728,27.0928555 C13.1580452,25.9842842 13.6020107,25.2285699 14.0948267,24.7999985 C10.265804,24.3714271 6.24137894,22.8971415 6.24137894,16.3285705 C6.24137894,14.457142 6.90948235,12.9285707 8.01580412,11.7285707 C7.82183861,11.2957136 7.2399421,9.55285657 8.16666618,7.19142814 C8.16666618,7.19142814 9.61063161,6.73142817 12.9080452,8.9485709 C14.2873555,8.56714235 15.7528726,8.37857093 17.2183898,8.3699995 C18.6839069,8.37857093 20.1494241,8.56714235 21.5287343,8.9485709 C24.8045962,6.73142817 26.2485617,7.19142814 26.2485617,7.19142814 C27.1752857,9.55285657 26.5933892,11.2957136 26.4209754,11.7285707 C27.5201133,12.9285707 28.1882167,14.457142 28.1882167,16.3285705 C28.1882167,22.9142843 24.1580445,24.3642843 20.3218379,24.7857128 C20.9252861,25.2999985 21.4856309,26.351427 21.4856309,27.9571412 C21.4856309,30.2514268 21.4640792,32.0942838 21.4640792,32.6514266 C21.4640792,33.1014266 21.7658033,33.6371409 22.6494239,33.4657123 C29.547412,31.217141 34.4827566,24.78857 34.4827566,17.2242847 C34.4827566,7.75714239 26.7629294,0.0814285666 17.2413783,0.0814285666" id="Shape"></path>
                            </g>
                            <g id="Group-26" transform="translate(46.399997, 1.600000)" fill="#161312">
                                <path d="M20.3845101,16.4735304 L11.4908776,16.4735304 C11.2613891,16.4735304 11.0753889,16.2860759 11.0753889,16.0548622 L11.0753889,11.6798383 C11.0753889,11.4489203 11.2613891,11.2608744 11.4908776,11.2608744 L14.9602376,11.2608744 L14.9602376,5.82498785 C14.9602376,5.82498785 14.1812697,5.55770248 12.027428,5.55770248 C9.48660008,5.55770248 5.93702198,6.49201859 5.93702198,14.3461873 C5.93702198,22.2015386 9.63322587,23.2351997 13.1031735,23.2351997 C16.1070922,23.2351997 17.4008664,22.70329 18.2244978,22.4469444 C18.4833701,22.3671136 18.7225553,22.6261202 18.7225553,22.8573339 L19.7145566,27.0848186 C19.7145566,27.192738 19.6781205,27.3231284 19.5558834,27.4115336 C19.2214943,27.6513217 17.1813684,28.7999983 12.027428,28.7999983 C6.09040607,28.7999983 0,26.2584219 0,14.0395778 C0,1.82073373 6.97280533,0 12.8487087,0 C17.7138052,0 20.6651265,2.0918628 20.6651265,2.0918628 C20.786776,2.15957115 20.7999988,2.33046821 20.7999988,2.40911634 L20.7999988,16.0548622 C20.7999988,16.2860759 20.6139985,16.4735304 20.3845101,16.4735304" id="path30" transform="translate(10.399999, 14.399999) scale(-1, 1) rotate(-180.000000) translate(-10.399999, -14.399999) "></path>
                                <path d="M65.5999961,27.5794133 C65.5999961,27.8120208 65.4192193,27.9999983 65.192669,27.9999983 L60.2554933,27.9999983 C60.0301017,27.9999983 59.8467176,27.8120208 59.8467176,27.5794133 C59.8467176,27.5782311 59.8481662,17.8450722 59.8481662,17.8450722 L52.1521169,17.8450722 L52.1521169,27.5794133 C52.1521169,27.8120208 51.9707607,27.9999983 51.7447897,27.9999983 L46.8079038,27.9999983 C46.5833814,27.9999983 46.3999972,27.8120208 46.3999972,27.5794133 L46.3999972,1.22176722 C46.3999972,0.989159762 46.5833814,0.799999952 46.8079038,0.799999952 L51.7447897,0.799999952 C51.9707607,0.799999952 52.1521169,0.989159762 52.1521169,1.22176722 L52.1521169,12.4956919 L59.8481662,12.4956919 C59.8481662,12.4956919 59.83455,1.2226539 59.83455,1.22176722 C59.83455,0.989159762 60.0176444,0.799999952 60.2436153,0.799999952 L65.1923793,0.799999952 C65.4186399,0.799999952 65.5994167,0.989159762 65.5999961,1.22176722 L65.5999961,27.5794133" id="path32" transform="translate(55.999997, 14.399999) scale(-1, 1) rotate(-180.000000) translate(-55.999997, -14.399999) "></path>
                                <path d="M29.5999982,4.80115297 C29.5999982,6.57024918 28.1675189,7.99999952 26.3998528,7.99999952 C24.633934,7.99999952 23.1999986,6.57024918 23.1999986,4.80115297 C23.1999986,3.03349833 24.633934,1.5999999 26.3998528,1.5999999 C28.1675189,1.5999999 29.5999982,3.03349833 29.5999982,4.80115297" id="path34" transform="translate(26.399998, 4.800000) scale(-1, 1) rotate(-180.000000) translate(-26.399998, -4.800000) "></path>
                                <path d="M29.5999982,15.5247575 C29.5999982,16.1944236 29.5999982,27.5837273 29.5999982,27.5837273 C29.5999982,27.8128082 29.4222071,27.9999983 29.2027152,27.9999983 L24.4158778,27.9999983 C24.196386,27.9999983 23.9999986,27.7644727 23.9999986,27.5356848 C23.9999986,27.5356848 23.9999986,13.0247879 23.9999986,10.2588267 C23.9999986,9.75115766 24.3043004,9.59999943 24.6979205,9.59999943 C24.6979205,9.59999943 26.7412512,9.59999943 29.0105542,9.59999943 C29.4839127,9.59999943 29.5999982,9.84167683 29.5999982,10.267029 C29.5999982,11.1930197 29.5999982,14.8208171 29.5999982,15.5247575" id="path36" transform="translate(26.799998, 18.799999) scale(-1, 1) rotate(-180.000000) translate(-26.799998, -18.799999) "></path>
                                <path d="M85.1883114,28.7999983 L80.2751288,28.7999983 C80.0499667,28.7999983 79.8663506,28.6095428 79.8663506,28.3756396 L79.8663506,15.3630642 C79.8663506,15.3630642 78.6179357,14.4277491 76.846273,14.4277491 C75.0749008,14.4277491 74.6048205,15.2511716 74.6048205,17.028062 C74.6048205,18.8070356 74.6048205,28.3756396 74.6048205,28.3756396 C74.6048205,28.6095428 74.4217854,28.7999983 74.1960423,28.7999983 L69.2093551,28.7999983 C68.9844836,28.7999983 68.7999959,28.6095428 68.7999959,28.3756396 C68.7999959,28.3756396 68.7999959,21.4460348 68.7999959,16.1686315 C68.7999959,10.8909307 71.6716118,9.59999943 75.6219721,9.59999943 C78.8631445,9.59999943 81.4761871,11.4337289 81.4761871,11.4337289 C81.4761871,11.4337289 81.6005347,10.4671672 81.6568979,10.3525963 C81.7129705,10.238323 81.859689,10.1228593 82.0183194,10.1228593 L85.1906356,10.1374411 C85.4155072,10.1374411 85.5999949,10.3278966 85.5999949,10.560907 L85.5982517,28.3756396 C85.5982517,28.6095428 85.4149262,28.7999983 85.1883114,28.7999983" id="path38" transform="translate(77.199995, 19.199999) scale(-1, 1) rotate(-180.000000) translate(-77.199995, -19.199999) "></path>
                                <path d="M96.6331968,5.49889604 C94.909084,5.5505227 93.7395913,6.32260228 93.7395913,6.32260228 L93.7395913,14.5135488 C93.7395913,14.5135488 94.8932126,15.2113788 96.3087132,15.3360949 C98.0986632,15.4941653 99.8233637,14.9607865 99.8233637,10.747123 C99.8233637,6.30403989 99.0450735,5.42696676 96.6331968,5.49889604 Z M98.5936181,20.0718257 C95.7705526,20.0718257 93.8503977,18.8287254 93.8503977,18.8287254 L93.8503977,27.5872751 C93.8503977,27.8155345 93.6652305,27.9999983 93.4371515,27.9999983 L88.4138288,27.9999983 C88.1854559,27.9999983 87.9999948,27.8155345 87.9999948,27.5872751 L87.9999948,1.72231892 C87.9999948,1.49405948 88.1854559,1.30843553 88.4144167,1.30843553 C88.4150045,1.30843553 91.8984999,1.30843553 91.8996756,1.30843553 C92.0566268,1.30843553 92.175369,1.38819582 92.26325,1.52799385 C92.3499553,1.66721181 92.4748697,2.72062768 92.4748697,2.72062768 C92.4748697,2.72062768 94.5287564,0.799999952 98.4169745,0.799999952 C102.982082,0.799999952 105.599994,3.08462463 105.599994,11.057173 C105.599994,19.0300113 101.418741,20.0718257 98.5936181,20.0718257 L98.5936181,20.0718257 Z" id="path40" transform="translate(96.799994, 14.399999) scale(-1, 1) rotate(-180.000000) translate(-96.799994, -14.399999) "></path>
                                <path d="M43.5237842,22.7978028 L39.8319043,22.7978028 C39.8319043,22.7978028 39.8264173,27.7195864 39.8264173,27.7204608 C39.8264173,27.9070135 39.7311169,27.9999983 39.5177018,27.9999983 L34.4869957,27.9999983 C34.2911967,27.9999983 34.1863662,27.9131348 34.1863662,27.7233757 L34.1863662,22.6363181 C34.1863662,22.6363181 31.6652374,22.0221518 31.494563,21.9723073 C31.3250438,21.9227542 31.1999981,21.7647675 31.1999981,21.5761744 L31.1999981,18.3794198 C31.1999981,18.1494354 31.3819353,17.9640487 31.606902,17.9640487 L34.1863662,17.9640487 C34.1863662,17.9640487 34.1863662,14.6203839 34.1863662,10.2734156 C34.1863662,4.56111516 38.1560612,3.99999976 40.8345801,3.99999976 C42.0587571,3.99999976 43.5229178,4.39671563 43.7646343,4.48678559 C43.9107615,4.54100245 43.9956655,4.69403392 43.9956655,4.8595994 L43.9999974,8.37640836 C43.9999974,8.60551834 43.8079526,8.79119652 43.5919384,8.79119652 C43.3765017,8.79119652 42.8263585,8.7028755 42.2597543,8.7028755 C40.4461587,8.7028755 39.8319043,9.55373048 39.8319043,10.6555571 C39.8319043,11.7562177 39.8316155,17.9640487 39.8316155,17.9640487 L43.5237842,17.9640487 C43.7487509,17.9640487 43.9309768,18.1494354 43.9309768,18.3794198 L43.9309768,22.3835976 C43.9309768,22.612999 43.7487509,22.7978028 43.5237842,22.7978028" id="path42" transform="translate(37.599998, 15.999999) scale(-1, 1) rotate(-180.000000) translate(-37.599998, -15.999999) "></path>
                            </g>
                        </g>
                    </g>
                </g>
            </g>
        </g>
    </g>
</svg>