<?xml version="1.0" encoding="UTF-8"?>
<svg width="157px" height="38px" viewBox="0 0 157 38" version="1.1" xmlns="http://www.w3.org/2000/svg" xmlns:xlink="http://www.w3.org/1999/xlink">
    <!-- Generator: Sketch 54.1 (76490) - https://sketchapp.com -->
    <title>Group 11</title>
    <desc>Created with Sketch.</desc>
    <g id="Foundation" stroke="none" stroke-width="1" fill="none" fill-rule="evenodd">
        <g id="Home" transform="translate(-865.000000, -4866.000000)" fill="#212529">
            <g id="Group-10" transform="translate(0.000000, 4638.000000)">
                <g id="Group-32" transform="translate(333.000000, 208.000000)">
                    <g id="Group-28" transform="translate(515.199969, 0.000000)">
                        <g id="Group-11" transform="translate(16.799999, 13.799999)">
                            <text id="Open-Source-Contribu" font-family="WorkSans-Regular, Work Sans" font-size="18" font-weight="normal" line-spacing="23.9999986" letter-spacing="-0.160714313">
                                <tspan x="46.3999972" y="20">Open Source </tspan>
                                <tspan x="46.3999972" y="43.9999986">Contributors</tspan>
                            </text>
                            <path d="M16.799999,7.79999948 C7.52975517,7.79999948 0,15.3826732 0,24.7180677 C0,31.9501969 4.51671187,38.1393139 10.8652167,40.5557702 C11.2447002,40.6936892 11.6612767,40.4983039 11.8010863,40.1190266 L15.4304339,30.4876806 C15.504619,30.3009155 15.4989121,30.0940369 15.4161677,29.913018 C15.3362764,29.729126 15.1850538,29.5883338 14.9967382,29.5222474 C13.0650809,28.7866792 11.6869558,26.9276454 11.6869558,24.7180677 C11.6869558,21.8648679 13.9667113,19.5690904 16.799999,19.5690904 C19.6332867,19.5690904 21.9130422,21.8648679 21.9130422,24.7180677 C21.9130422,26.9276454 20.5349171,28.7866792 18.6032598,29.5222474 C18.4149449,29.5883338 18.2637216,29.729126 18.1838303,29.913018 C18.1010859,30.0940369 18.0953797,30.3009155 18.1695641,30.4876806 L21.7989117,40.1190266 C21.9387213,40.4983039 22.3552978,40.6936892 22.7347813,40.5557702 C29.0832861,38.1393139 33.599998,31.9501969 33.599998,24.7180677 C33.599998,15.3826732 26.0702428,7.79999948 16.799999,7.79999948 Z M16.799999,9.27113584 C25.2798898,9.27113584 32.1391285,16.1785808 32.1391285,24.7180677 C32.1391285,31.0594702 28.29008,36.4268193 22.8717378,38.8087957 L19.7673901,30.5566402 C21.8930692,29.4590349 23.3739117,27.2839362 23.3739117,24.7180677 C23.3739117,21.0718334 20.4207866,18.0979541 16.799999,18.0979541 C13.1792114,18.0979541 10.2260863,21.0718334 10.2260863,24.7180677 C10.2260863,27.2839362 11.7069288,29.4590349 13.8326079,30.5566402 L10.7282602,38.8087957 C5.30991798,36.4268193 1.46086948,31.0594702 1.46086948,24.7180677 C1.46086948,16.1785808 8.3201082,9.27113584 16.799999,9.27113584 Z" id="Shape" fill-rule="nonzero"></path>
                        </g>
                    </g>
                </g>
            </g>
        </g>
    </g>
</svg>